<svg xmlns="http://www.w3.org/2000/svg" width="181" height="50" viewBox="0 0 181 50">
    <g fill="none" fill-rule="evenodd">
        <path fill="#262626" d="M14.4 0h21.84v49.694H14.4c-7.953 0-14.4-6.447-14.4-14.4V14.4C0 6.447 6.447 0 14.4 0z"/>
        <path fill="#E34855" d="M36.24 0h7.116c7.953 0 14.4 6.447 14.4 14.4v19.482H36.24V0z"/>
        <path fill="#9CA3E3" d="M36.24 33.882v15.812c7.505 0 13.589-6.084 13.589-13.59v-2.222h-13.59z"/>
        <g transform="translate(15.005 6.776)">
            <ellipse cx="7.078" cy="7.059" fill="#FFF" rx="7.078" ry="7.059"/>
            <ellipse cx="9.343" cy="5.647" fill="#262626" rx="2.831" ry="2.824"/>
        </g>
        <g fill="#0D0D0D" fill-rule="nonzero" stroke="#0D0D0D" stroke-width=".864">
            <path d="M165.05 15.53v9.092c0 1.71.626 3.218 1.877 4.52 1.218 1.28 2.615 1.927 4.19 1.938 1.642 0 3.028-.646 4.156-1.937 1.252-1.303 1.877-2.81 1.877-4.521v-9.093h2.732v15.84l-.1 1.02c-.336 2.277-1.352 4.175-3.05 5.693-1.598 1.53-3.47 2.294-5.615 2.294-1.486 0-2.91-.407-4.273-1.223-1.453-.805-2.604-1.887-3.453-3.246l2.313-1.479A6.987 6.987 0 0 0 168 36.722c1.05.578 2.09.867 3.117.867 1.609 0 2.978-.623 4.106-1.87 1.229-1.257 1.871-2.775 1.927-4.554-1.776 1.79-3.787 2.685-6.033 2.685-2.413 0-4.458-.917-6.134-2.753-1.776-1.835-2.664-3.994-2.664-6.475v-9.093h2.731zM154.268 10.914c1.172-1.064 2.884-1.596 5.136-1.596h.365v2.66h-.365c-1.51 0-2.583.289-3.22.866-.604.543-.912 1.447-.924 2.71h3.412v2.662h-3.429V33.6h-2.785V18.216h-2.037v-2.661h2.054c.023-2.03.621-3.576 1.793-4.64zM145.039 15.53h2.55V33.6h-2.55V15.53zm1.133-6.212c.479 0 .882.166 1.275.423.26.406.424.805.424 1.27 0 .467-.163.865-.424 1.271-.393.258-.796.424-1.275.424-.467 0-.868-.166-1.275-.424-.258-.406-.425-.804-.425-1.27 0-.466.167-.865.425-1.27.407-.258.808-.424 1.275-.424zM132.733 15.53c2.527 0 4.694.895 6.499 2.685 1.794 1.802 2.69 3.968 2.69 6.5v1.359h-15.519c.316 1.47 1.061 2.685 2.234 3.647 1.185.973 2.55 1.459 4.096 1.459 1.196 0 2.307-.31 3.334-.928a6.522 6.522 0 0 0 2.37-2.554l2.47 1.227a9.032 9.032 0 0 1-3.401 3.631 9.02 9.02 0 0 1-4.773 1.326c-2.55 0-4.727-.895-6.533-2.685-1.794-1.802-2.69-3.963-2.69-6.483 0-2.53.896-4.697 2.69-6.499 1.806-1.79 3.983-2.686 6.533-2.686zm-6.39 7.905h12.464c-.312-1.458-1.047-2.664-2.206-3.618-1.17-.976-2.506-1.464-4.01-1.464a6.128 6.128 0 0 0-4.043 1.464c-1.159.954-1.894 2.16-2.206 3.618zM122.943 33.6h-3.679l-7.168-7.778v7.761h-2.75V9.318h2.75v14.01l6.635-7.761h3.507l-7.701 9.008zM97.323 15.53c2.527 0 4.694.895 6.499 2.685 1.794 1.802 2.69 3.968 2.69 6.5 0 2.52-.896 4.68-2.69 6.482-1.805 1.79-3.972 2.685-6.499 2.685-2.55 0-4.727-.895-6.532-2.685-1.794-1.802-2.691-3.963-2.691-6.483 0-2.53.897-4.697 2.69-6.499 1.806-1.79 3.983-2.686 6.533-2.686zm-.142 15.246c1.712 0 3.179-.61 4.4-1.829 1.21-1.209 1.816-2.667 1.816-4.374 0-1.708-.605-3.171-1.816-4.39-1.221-1.22-2.688-1.83-4.4-1.83-1.723 0-3.195.61-4.417 1.83-1.22 1.219-1.832 2.682-1.832 4.39 0 1.707.611 3.165 1.832 4.374 1.222 1.22 2.694 1.83 4.417 1.83zM76.36 15.247c2.528 0 4.694.916 6.5 2.748 1.793 1.82 2.69 4.017 2.69 6.59 0 2.574-.897 4.771-2.69 6.592-1.806 1.82-3.972 2.73-6.5 2.73-2.515 0-4.67-.887-6.464-2.663v8.85h-2.759v-24.61h2.759v2.46c1.794-1.798 3.949-2.697 6.465-2.697zm-.142 15.53c1.712 0 3.18-.62 4.4-1.858 1.21-1.248 1.816-2.747 1.816-4.495 0-1.749-.605-3.248-1.816-4.496-1.22-1.238-2.688-1.857-4.4-1.857-1.723 0-3.195.619-4.416 1.857-1.221 1.238-1.832 2.73-1.832 4.48v.016c0 1.748.61 3.247 1.832 4.495 1.221 1.238 2.693 1.857 4.416 1.857z"/>
        </g>
    </g>
</svg>
