<svg xmlns="http://www.w3.org/2000/svg" width="48" height="48" viewBox="0 0 48 48">
    <g fill="none" fill-rule="nonzero" opacity=".4">
        <path fill="#0D0D0D" d="M12 36l16.38-7.62L36 12l-16.38 7.62z"/>
        <path fill="#FFF" d="M24 21.36A2.632 2.632 0 0 1 26.64 24 2.632 2.632 0 0 1 24 26.64 2.632 2.632 0 0 1 21.36 24 2.632 2.632 0 0 1 24 21.36z"/>
        <path fill="#0D0D0D" d="M24 0C10.745 0 0 10.745 0 24s10.745 24 24 24 24-10.745 24-24S37.255 0 24 0zm0 43.2C13.397 43.2 4.8 34.603 4.8 24S13.397 4.8 24 4.8 43.2 13.397 43.2 24 34.603 43.2 24 43.2z"/>
    </g>
</svg>
