<svg xmlns="http://www.w3.org/2000/svg" width="58" height="56" viewBox="0 0 58 56">
    <g fill="#000" fill-rule="nonzero" opacity=".4">
        <path d="M50.75 26.783H58v4.87h-7.25zM0 26.783h7.25v4.87H0zM26.583 0h4.833v7.304h-4.833zM42.587 46.43l3.418-3.442 5.126 5.165-3.417 3.443zM6.87 10.278l3.417-3.443L15.413 12l-3.417 3.443zM42.67 12.085l5.127-5.165 3.418 3.442-5.126 5.166zM6.787 48.067l5.127-5.164 3.417 3.444-5.127 5.164zM31.417 56h-4.834c-2.658 0-4.833-2.191-4.833-4.87v-6.573c-5.8-2.679-9.667-8.766-9.667-15.34 0-9.495 7.492-17.043 16.917-17.043s16.917 7.548 16.917 17.043c0 6.574-3.867 12.661-9.667 15.34v6.573c0 2.679-2.175 4.87-4.833 4.87zM29 17.043c-6.767 0-12.083 5.357-12.083 12.174 0 5.113 3.141 9.74 7.975 11.444l1.691.487v9.982h4.834v-9.982l1.691-.487c4.834-1.704 7.975-6.33 7.975-11.444 0-6.817-5.316-12.174-12.083-12.174z"/>
        <path d="M0 26.783h7.25v4.87H0z"/>
    </g>
</svg>
