<svg xmlns="http://www.w3.org/2000/svg" width="48" height="48" viewBox="0 0 48 48">
    <g fill="#0D0D0D" fill-rule="nonzero" opacity=".4">
        <circle cx="38.4" cy="24" r="2.4"/>
        <circle cx="9.6" cy="24" r="2.4"/>
        <circle cx="24" cy="9.6" r="2.4"/>
        <path d="M13.2 16.56c1.2.48 2.64.24 3.36-.96.72-1.2.24-2.64-.96-3.36-1.2-.72-2.64-.24-3.36.96-.72 1.2-.24 2.64.96 3.36zM13.2 35.76c1.2.48 2.64.24 3.36-.96.48-1.2.24-2.64-.96-3.36-1.2-.48-2.64-.24-3.36.96-.48 1.2-.24 2.64.96 3.36z"/>
        <path d="M24 48C10.8 48 0 37.2 0 24S10.8 0 24 0s24 10.8 24 24-10.8 24-24 24zm0-43.2C13.44 4.8 4.8 13.44 4.8 24c0 10.56 8.64 19.2 19.2 19.2 10.56 0 19.2-8.64 19.2-19.2 0-10.56-8.64-19.2-19.2-19.2z"/>
        <path d="M32.4 35.76c1.2.72 2.64.24 3.36-.96.72-1.2.24-2.64-.96-3.36-1.2-.72-2.64-.24-3.36.96-.48 1.2-.24 2.64.96 3.36z"/>
        <circle cx="24" cy="24" r="3.6"/>
        <path d="M22.404 22.318l10.692-10.691 3.394 3.394-10.691 10.691z"/>
    </g>
</svg>
