<svg id="Group_181" data-name="Group 181" xmlns="http://www.w3.org/2000/svg" width="34.961" height="34.96" viewBox="0 0 34.961 34.96">
  <path id="Path_289" data-name="Path 289" d="M841.9,1020.02a12.663,12.663,0,0,1-.32,3.04,7.341,7.341,0,0,1-2.28,3.88,7.076,7.076,0,0,1-3.52,1.721,12.587,12.587,0,0,1-2.12.2q-3.04.038-8,.04h-10.2a12.235,12.235,0,0,1-3.44-.521,7.746,7.746,0,0,1-2.12-1.12,7.514,7.514,0,0,1-2.8-4.92,13.875,13.875,0,0,1-.16-2.32v-17.239a12.871,12.871,0,0,1,.36-3.32,7.194,7.194,0,0,1,1.84-3.2,7.054,7.054,0,0,1,2.72-1.76,9.234,9.234,0,0,1,2.04-.48c.293-.025.946-.053,1.96-.08h17.12a12.786,12.786,0,0,1,3.36.36,7.246,7.246,0,0,1,4.64,3.76,6.839,6.839,0,0,1,.72,2.16,10.163,10.163,0,0,1,.16,1.88Zm-4.5-2.3a.587.587,0,0,0-.38-.22,6.427,6.427,0,0,1-3.88-2.32,7.767,7.767,0,0,1-1.28-2v-.04a1.068,1.068,0,0,1-.14-.88,1.25,1.25,0,0,1,.58-.56,7.4,7.4,0,0,1,.84-.28l.36-.16a3.084,3.084,0,0,0,1.06-.62.98.98,0,0,0,.34-.68.857.857,0,0,0-.24-.6,1.809,1.809,0,0,0-.6-.421,1.476,1.476,0,0,0-.58-.119,1.2,1.2,0,0,0-.54.119,3.194,3.194,0,0,1-1.08.32.649.649,0,0,1-.36-.08l.04-.6q.12-1.879.08-2.8a6.707,6.707,0,0,0-.44-2.521,7.34,7.34,0,0,0-1.6-2.28,6.72,6.72,0,0,0-1.92-1.279,7.54,7.54,0,0,0-3-.6h-.52a7.708,7.708,0,0,0-3,.6,6.179,6.179,0,0,0-1.88,1.279,7.773,7.773,0,0,0-1.64,2.32,7.012,7.012,0,0,0-.4,2.48q-.04.919.08,2.8l.04.6a.991.991,0,0,1-.44.08,2.819,2.819,0,0,1-1.16-.32,1.184,1.184,0,0,0-.44-.079,1.775,1.775,0,0,0-.8.2,1.066,1.066,0,0,0-.56.761.923.923,0,0,0,.4.88,2.68,2.68,0,0,0,.96.56l.4.16a5.015,5.015,0,0,1,.8.28,1.239,1.239,0,0,1,.62.56,1.076,1.076,0,0,1-.14.88v.04q-.12.24-.36.681a12.545,12.545,0,0,1-.96,1.359,8.571,8.571,0,0,1-1.6,1.4,5.8,5.8,0,0,1-2.24.88.664.664,0,0,0-.4.22.481.481,0,0,0-.12.42,1.155,1.155,0,0,0,.04.28,1.7,1.7,0,0,0,.92.76,10.008,10.008,0,0,0,2.56.681,4.632,4.632,0,0,1,.16.56l.16.6a.623.623,0,0,0,.68.521,4.017,4.017,0,0,0,.6-.08,7.672,7.672,0,0,1,1.36-.16,5.757,5.757,0,0,1,.98.08,2.865,2.865,0,0,1,.94.36,7.163,7.163,0,0,1,.92.6,10.811,10.811,0,0,0,1.56.96,5.1,5.1,0,0,0,2.08.44h.32a5.1,5.1,0,0,0,2.08-.44,12.663,12.663,0,0,0,1.52-.96,9.2,9.2,0,0,1,.96-.6,2.819,2.819,0,0,1,.94-.36,5.506,5.506,0,0,1,.94-.08,6.891,6.891,0,0,1,1.4.16,3.292,3.292,0,0,0,.6.08.623.623,0,0,0,.68-.521l.16-.6q.12-.48.16-.6a9.763,9.763,0,0,0,2.56-.641,1.5,1.5,0,0,0,.88-.76.647.647,0,0,0,.08-.28A.665.665,0,0,0,837.4,1017.72Z" transform="translate(-806.937 -993.941)" fill="#e7e266"/>
</svg>
