<svg id="Group_193" data-name="Group 193" xmlns="http://www.w3.org/2000/svg" width="22.16" height="35.038" viewBox="0 0 22.16 35.038">
  <path id="Path_301" data-name="Path 301" d="M829.47,1166.63a9.724,9.724,0,0,0,5.36-1.72v5.52a20.68,20.68,0,0,1-4.1,1.46,19.693,19.693,0,0,1-3.98.46,11.661,11.661,0,0,1-2.04-.159q-.761-.161-1.76-.48a9.439,9.439,0,0,1-3.16-1.7,6.15,6.15,0,0,1-1.84-2.38,10.163,10.163,0,0,1-.52-3.68v-12.28h-4.76v-4.96a12.116,12.116,0,0,0,3.96-1.92,9.522,9.522,0,0,0,2.38-3,13.883,13.883,0,0,0,1.26-4.479h5v8.119h8.16v6.24h-8.16v11.4a4.775,4.775,0,0,0,.2,1.38,2.622,2.622,0,0,0,.52.82,3.85,3.85,0,0,0,.8.68A5.279,5.279,0,0,0,829.47,1166.63Z" transform="translate(-812.67 -1137.312)" fill="#34526f"/>
</svg>
