<svg id="Group_195" data-name="Group 195" xmlns="http://www.w3.org/2000/svg" width="35.041" height="28.442" viewBox="0 0 35.041 28.442">
  <path id="Path_303" data-name="Path 303" d="M982.67,1147.97v.92a20.791,20.791,0,0,1-1.32,7.2,21.463,21.463,0,0,1-3.92,6.56,19.448,19.448,0,0,1-6.4,4.8,20.878,20.878,0,0,1-8.76,1.84,20.483,20.483,0,0,1-5.84-.84,19.86,19.86,0,0,1-5.2-2.36q.84.081,1.72.08a14.28,14.28,0,0,0,4.76-.8,14.917,14.917,0,0,0,4.16-2.24,7.183,7.183,0,0,1-4.16-1.46,6.927,6.927,0,0,1-2.52-3.54,7.142,7.142,0,0,0,1.32.12,7.414,7.414,0,0,0,1.88-.24,6.943,6.943,0,0,1-2.92-1.34,7.13,7.13,0,0,1-2.06-2.521,7.488,7.488,0,0,1-.78-3.18v-.12a6.737,6.737,0,0,0,3.28.92,7.235,7.235,0,0,1-2.34-2.58,7.029,7.029,0,0,1-.86-3.42,7.144,7.144,0,0,1,.96-3.6,20.512,20.512,0,0,0,14.8,7.519,8.314,8.314,0,0,1-.16-1.64,7,7,0,0,1,.96-3.6,7.248,7.248,0,0,1,2.62-2.62,6.923,6.923,0,0,1,3.58-.98,7.12,7.12,0,0,1,5.24,2.281,13.968,13.968,0,0,0,4.56-1.76,6.952,6.952,0,0,1-1.22,2.3,7.386,7.386,0,0,1-1.94,1.7,14.6,14.6,0,0,0,4.16-1.16A15.04,15.04,0,0,1,982.67,1147.97Z" transform="translate(-951.23 -1140.849)" fill="#00acee"/>
</svg>
