<svg id="Group_213" data-name="Group 213" xmlns="http://www.w3.org/2000/svg" width="34.961" height="24.556" viewBox="0 0 34.961 24.556">
  <path id="Path_321" data-name="Path 321" d="M986.23,1372.08q0,2.921-.04,3.64-.16,2.361-.32,3.44a8.433,8.433,0,0,1-.52,1.96,3.924,3.924,0,0,1-.96,1.52,4.608,4.608,0,0,1-2.44,1.28q-7.6.561-16.2.4-5.04-.081-7.18-.181a24,24,0,0,1-3.18-.3,4.679,4.679,0,0,1-2.36-1.24,5.434,5.434,0,0,1-1.12-2.2,7.5,7.5,0,0,1-.3-1.24q-.1-.641-.18-1.92a82.532,82.532,0,0,1,0-10.32l.24-1.96a9.3,9.3,0,0,1,.44-1.92,4.389,4.389,0,0,1,1.04-1.6,5.106,5.106,0,0,1,2.36-1.2,40.622,40.622,0,0,1,4.86-.32q3.859-.12,8.38-.12t8.38.141q3.859.141,4.9.3a4.866,4.866,0,0,1,1.54.6,3.953,3.953,0,0,1,1.18,1.04,7.264,7.264,0,0,1,.92,2.16,12.13,12.13,0,0,1,.4,2.28q0,.2.12,2.12C986.216,1368.92,986.23,1370.14,986.23,1372.08Zm-16.12,1.96q3.159-1.6,4.48-2.32l-9.4-4.96v9.88Q966.83,1375.725,970.11,1374.04Z" transform="translate(-951.27 -1359.8)" fill="#c4302b"/>
</svg>
